<svg xmlns="http://www.w3.org/2000/svg" xmlns:xlink="http://www.w3.org/1999/xlink" width="1000" zoomAndPan="magnify" viewBox="0 0 750 449.999984" height="600" preserveAspectRatio="xMidYMid meet" version="1.0"><defs><g/><clipPath id="e8c570e36c"><path d="M 263 23.390625 L 392.898438 23.390625 L 392.898438 153 L 263 153 Z M 263 23.390625 " clip-rule="nonzero"/></clipPath><clipPath id="8850ef4934"><path d="M 366.195312 43.042969 C 366.195312 39.433594 369.132812 36.488281 372.746094 36.488281 C 376.359375 36.488281 379.289062 39.425781 379.289062 43.042969 C 379.289062 86.132812 355.917969 125.046875 318.058594 145.4375 C 322.65625 147.605469 327.128906 150.054688 331.472656 152.769531 C 347.980469 142.441406 362.027344 128.5 372.492188 111.917969 C 385.507812 91.300781 392.386719 67.488281 392.386719 43.046875 C 392.386719 32.207031 383.574219 23.394531 372.746094 23.394531 C 361.914062 23.394531 353.097656 32.207031 353.097656 43.042969 C 353.097656 92.714844 312.683594 133.128906 263.011719 133.128906 C 276.046875 133.128906 288.910156 135.089844 301.203125 138.890625 C 339.246094 123.679688 366.195312 86.449219 366.195312 43.042969 " clip-rule="nonzero"/></clipPath><clipPath id="dcc4deca1c"><path d="M 372.746094 43 L 502.121094 43 L 502.121094 172.921875 L 372.746094 172.921875 Z M 372.746094 43 " clip-rule="nonzero"/></clipPath><clipPath id="133b07b730"><path d="M 482.472656 133.121094 C 432.800781 133.121094 392.386719 92.707031 392.386719 43.035156 C 392.386719 56.070312 390.425781 68.933594 386.621094 81.226562 C 401.835938 119.269531 439.0625 146.210938 482.472656 146.210938 C 486.082031 146.210938 489.023438 149.148438 489.023438 152.761719 C 489.023438 156.375 486.085938 159.308594 482.472656 159.308594 C 439.410156 159.308594 400.472656 135.921875 380.085938 98.066406 C 377.917969 102.664062 375.46875 107.144531 372.753906 111.484375 C 383.113281 128.042969 397.105469 142.121094 413.746094 152.59375 C 434.328125 165.550781 458.09375 172.394531 482.472656 172.394531 C 493.300781 172.394531 502.121094 163.585938 502.121094 152.757812 C 502.121094 141.925781 493.300781 133.121094 482.472656 133.121094 " clip-rule="nonzero"/></clipPath><clipPath id="3488d3ee52"><path d="M 372.746094 98 L 388.347656 98 L 388.347656 123.511719 L 372.746094 123.511719 Z M 372.746094 98 " clip-rule="nonzero"/></clipPath><clipPath id="4ed174ae5d"><path d="M 372.746094 111.503906 C 375.246094 115.492188 377.949219 119.34375 380.859375 123.035156 C 381.785156 121.675781 382.6875 120.300781 383.570312 118.90625 C 385.195312 116.328125 386.734375 113.703125 388.183594 111.039062 C 385.234375 106.9375 382.527344 102.621094 380.085938 98.09375 C 377.917969 102.691406 375.46875 107.164062 372.753906 111.507812 " clip-rule="nonzero"/></clipPath><clipPath id="24789c783a"><path d="M 386.398438 43 L 400.699219 43 L 400.699219 97.503906 L 386.398438 97.503906 Z M 386.398438 43 " clip-rule="nonzero"/></clipPath><clipPath id="54e2575698"><path d="M 392.386719 43.042969 C 392.386719 56.078125 390.425781 68.933594 386.621094 81.226562 C 388.871094 86.839844 391.585938 92.214844 394.738281 97.292969 C 397.007812 91.785156 398.9375 86.136719 400.5 80.394531 C 395.289062 69.011719 392.386719 56.359375 392.386719 43.042969 " clip-rule="nonzero"/></clipPath><clipPath id="390042626f"><path d="M 353 152.769531 L 482.617188 152.769531 L 482.617188 282.144531 L 353 282.144531 Z M 353 152.769531 " clip-rule="nonzero"/></clipPath><clipPath id="c8c722b353"><path d="M 379.289062 262.496094 C 379.289062 266.105469 376.351562 269.042969 372.738281 269.042969 C 369.125 269.042969 366.195312 266.105469 366.195312 262.496094 C 366.195312 219.414062 389.574219 180.496094 427.425781 160.101562 C 422.828125 157.933594 418.347656 155.492188 414.011719 152.769531 C 397.484375 163.109375 383.425781 177.070312 372.953125 193.683594 C 359.960938 214.289062 353.097656 238.082031 353.097656 262.496094 C 353.097656 273.324219 361.910156 282.136719 372.738281 282.136719 C 383.570312 282.136719 392.386719 273.324219 392.386719 262.496094 C 392.386719 212.824219 432.800781 172.410156 482.472656 172.410156 C 469.4375 172.410156 456.574219 170.449219 444.28125 166.644531 C 406.238281 181.859375 379.289062 219.085938 379.289062 262.496094 " clip-rule="nonzero"/></clipPath><clipPath id="915497341c"><path d="M 243.367188 133 L 372.746094 133 L 372.746094 262.640625 L 243.367188 262.640625 Z M 243.367188 133 " clip-rule="nonzero"/></clipPath><clipPath id="acad4d69b6"><path d="M 263.011719 159.3125 C 259.402344 159.3125 256.464844 156.375 256.464844 152.769531 C 256.464844 149.160156 259.402344 146.21875 263.011719 146.21875 C 306.09375 146.21875 345.011719 169.597656 365.40625 207.449219 C 367.574219 202.851562 370.023438 198.371094 372.738281 194.035156 C 362.398438 177.507812 348.4375 163.449219 331.832031 152.976562 C 311.226562 139.992188 287.429688 133.121094 263.011719 133.121094 C 252.183594 133.121094 243.371094 141.9375 243.371094 152.769531 C 243.371094 163.597656 252.183594 172.410156 263.011719 172.410156 C 312.683594 172.410156 353.097656 212.824219 353.097656 262.496094 C 353.097656 249.460938 355.058594 236.597656 358.863281 224.304688 C 343.648438 186.261719 306.421875 159.3125 263.011719 159.3125 " clip-rule="nonzero"/></clipPath><clipPath id="0af6cc2ab2"><path d="M 263 125 L 317.480469 125 L 317.480469 139 L 263 139 Z M 263 125 " clip-rule="nonzero"/></clipPath><clipPath id="5b1fa3e066"><path d="M 317.261719 130.769531 C 311.753906 128.5 306.109375 126.570312 300.363281 125.007812 C 288.980469 130.21875 276.328125 133.121094 263.011719 133.121094 C 276.046875 133.121094 288.902344 135.082031 301.191406 138.886719 C 306.804688 136.636719 312.175781 133.921875 317.257812 130.769531 " clip-rule="nonzero"/></clipPath><clipPath id="8abb35bb5f"><path d="M 318 137.164062 L 343.488281 137.164062 L 343.488281 153 L 318 153 Z M 318 137.164062 " clip-rule="nonzero"/></clipPath><clipPath id="5ead8113f2"><path d="M 331.480469 152.769531 C 335.46875 150.269531 339.320312 147.566406 343.011719 144.660156 C 341.632812 143.722656 340.230469 142.804688 338.8125 141.90625 C 336.253906 140.292969 333.652344 138.773438 331.011719 137.335938 C 326.90625 140.285156 322.589844 142.996094 318.058594 145.4375 C 322.65625 147.605469 327.136719 150.054688 331.472656 152.769531 " clip-rule="nonzero"/></clipPath><clipPath id="4bd6b13ef2"><path d="M 344.789062 208.03125 L 359 208.03125 L 359 262.640625 L 344.789062 262.640625 Z M 344.789062 208.03125 " clip-rule="nonzero"/></clipPath><clipPath id="0164cec908"><path d="M 350.746094 208.25 C 348.476562 213.761719 346.546875 219.40625 344.984375 225.148438 C 350.195312 236.53125 353.097656 249.1875 353.097656 262.503906 C 353.097656 249.464844 355.058594 236.609375 358.855469 224.324219 C 356.609375 218.710938 353.894531 213.335938 350.742188 208.257812 " clip-rule="nonzero"/></clipPath><clipPath id="08ff374a10"><path d="M 357.140625 182.023438 L 372.746094 182.023438 L 372.746094 208 L 357.140625 208 Z M 357.140625 182.023438 " clip-rule="nonzero"/></clipPath><clipPath id="10f4dedc8a"><path d="M 372.738281 194.035156 C 370.238281 190.042969 367.535156 186.195312 364.632812 182.503906 C 363.695312 183.882812 362.777344 185.285156 361.875 186.703125 C 360.261719 189.261719 358.746094 191.859375 357.304688 194.503906 C 360.253906 198.605469 362.964844 202.925781 365.40625 207.457031 C 367.574219 202.859375 370.023438 198.378906 372.738281 194.042969 " clip-rule="nonzero"/></clipPath><clipPath id="eddc1c8aae"><path d="M 402 152.769531 L 428 152.769531 L 428 168.371094 L 402 168.371094 Z M 402 152.769531 " clip-rule="nonzero"/></clipPath><clipPath id="ba032c8f3e"><path d="M 414.011719 152.769531 C 410.019531 155.269531 406.171875 157.972656 402.484375 160.875 C 403.898438 161.839844 405.324219 162.777344 406.769531 163.691406 C 409.296875 165.277344 411.871094 166.777344 414.480469 168.203125 C 418.582031 165.253906 422.902344 162.542969 427.433594 160.101562 C 422.835938 157.933594 418.355469 155.484375 414.019531 152.769531 " clip-rule="nonzero"/></clipPath><clipPath id="f53b1ec867"><path d="M 428.007812 166.421875 L 482.617188 166.421875 L 482.617188 180.722656 L 428.007812 180.722656 Z M 428.007812 166.421875 " clip-rule="nonzero"/></clipPath><clipPath id="8233ff6986"><path d="M 428.226562 174.765625 C 433.738281 177.039062 439.382812 178.96875 445.125 180.53125 C 456.507812 175.320312 469.164062 172.414062 482.480469 172.414062 C 469.441406 172.414062 456.589844 170.457031 444.300781 166.652344 C 438.6875 168.898438 433.3125 171.613281 428.234375 174.765625 " clip-rule="nonzero"/></clipPath></defs><g clip-path="url(#e8c570e36c)"><g clip-path="url(#8850ef4934)"><path fill="#70caf3" d="M 240.113281 20.136719 L 505.375 20.136719 L 505.375 285.398438 L 240.113281 285.398438 Z M 240.113281 20.136719 " fill-opacity="1" fill-rule="nonzero"/></g></g><g clip-path="url(#dcc4deca1c)"><g clip-path="url(#133b07b730)"><path fill="#96c01f" d="M 240.113281 20.136719 L 505.375 20.136719 L 505.375 285.398438 L 240.113281 285.398438 Z M 240.113281 20.136719 " fill-opacity="1" fill-rule="nonzero"/></g></g><g clip-path="url(#3488d3ee52)"><g clip-path="url(#4ed174ae5d)"><path fill="#89ad27" d="M 240.113281 20.136719 L 505.375 20.136719 L 505.375 285.398438 L 240.113281 285.398438 Z M 240.113281 20.136719 " fill-opacity="1" fill-rule="nonzero"/></g></g><g clip-path="url(#24789c783a)"><g clip-path="url(#54e2575698)"><path fill="#89ad27" d="M 240.113281 20.136719 L 505.375 20.136719 L 505.375 285.398438 L 240.113281 285.398438 Z M 240.113281 20.136719 " fill-opacity="1" fill-rule="nonzero"/></g></g><g clip-path="url(#390042626f)"><g clip-path="url(#c8c722b353)"><path fill="#70caf3" d="M 240.113281 20.136719 L 505.375 20.136719 L 505.375 285.398438 L 240.113281 285.398438 Z M 240.113281 20.136719 " fill-opacity="1" fill-rule="nonzero"/></g></g><g clip-path="url(#915497341c)"><g clip-path="url(#acad4d69b6)"><path fill="#96c01f" d="M 240.113281 20.136719 L 505.375 20.136719 L 505.375 285.398438 L 240.113281 285.398438 Z M 240.113281 20.136719 " fill-opacity="1" fill-rule="nonzero"/></g></g><g clip-path="url(#0af6cc2ab2)"><g clip-path="url(#5b1fa3e066)"><path fill="#43b8e0" d="M 240.113281 20.136719 L 505.375 20.136719 L 505.375 285.398438 L 240.113281 285.398438 Z M 240.113281 20.136719 " fill-opacity="1" fill-rule="nonzero"/></g></g><g clip-path="url(#8abb35bb5f)"><g clip-path="url(#5ead8113f2)"><path fill="#43b8e0" d="M 240.113281 20.136719 L 505.375 20.136719 L 505.375 285.398438 L 240.113281 285.398438 Z M 240.113281 20.136719 " fill-opacity="1" fill-rule="nonzero"/></g></g><g clip-path="url(#4bd6b13ef2)"><g clip-path="url(#0164cec908)"><path fill="#89ad27" d="M 240.113281 20.136719 L 505.375 20.136719 L 505.375 285.398438 L 240.113281 285.398438 Z M 240.113281 20.136719 " fill-opacity="1" fill-rule="nonzero"/></g></g><g clip-path="url(#08ff374a10)"><g clip-path="url(#10f4dedc8a)"><path fill="#89ad27" d="M 240.113281 20.136719 L 505.375 20.136719 L 505.375 285.398438 L 240.113281 285.398438 Z M 240.113281 20.136719 " fill-opacity="1" fill-rule="nonzero"/></g></g><g clip-path="url(#eddc1c8aae)"><g clip-path="url(#ba032c8f3e)"><path fill="#43b8e0" d="M 240.113281 20.136719 L 505.375 20.136719 L 505.375 285.398438 L 240.113281 285.398438 Z M 240.113281 20.136719 " fill-opacity="1" fill-rule="nonzero"/></g></g><g clip-path="url(#f53b1ec867)"><g clip-path="url(#8233ff6986)"><path fill="#43b8e0" d="M 240.113281 20.136719 L 505.375 20.136719 L 505.375 285.398438 L 240.113281 285.398438 Z M 240.113281 20.136719 " fill-opacity="1" fill-rule="nonzero"/></g></g><g fill="#43b8e0" fill-opacity="1"><g transform="translate(232.339241, 358.608202)"><g><path d="M 37.375 0 C 36.875 -1.644531 36.3125 -3.335938 35.6875 -5.078125 C 35.070312 -6.816406 34.46875 -8.5625 33.875 -10.3125 L 15.328125 -10.3125 C 14.722656 -8.5625 14.113281 -6.816406 13.5 -5.078125 C 12.882812 -3.335938 12.320312 -1.644531 11.8125 0 L 0.6875 0 C 2.46875 -5.125 4.160156 -9.863281 5.765625 -14.21875 C 7.367188 -18.570312 8.9375 -22.671875 10.46875 -26.515625 C 12.007812 -30.367188 13.523438 -34.023438 15.015625 -37.484375 C 16.503906 -40.941406 18.050781 -44.316406 19.65625 -47.609375 L 29.890625 -47.609375 C 31.441406 -44.316406 32.972656 -40.941406 34.484375 -37.484375 C 35.992188 -34.023438 37.515625 -30.367188 39.046875 -26.515625 C 40.585938 -22.671875 42.160156 -18.570312 43.765625 -14.21875 C 45.367188 -9.863281 47.0625 -5.125 48.84375 0 Z M 24.53125 -36.828125 C 24.300781 -36.140625 23.957031 -35.195312 23.5 -34 C 23.039062 -32.8125 22.507812 -31.4375 21.90625 -29.875 C 21.3125 -28.320312 20.660156 -26.609375 19.953125 -24.734375 C 19.242188 -22.859375 18.523438 -20.890625 17.796875 -18.828125 L 31.328125 -18.828125 C 30.597656 -20.890625 29.890625 -22.859375 29.203125 -24.734375 C 28.515625 -26.609375 27.859375 -28.320312 27.234375 -29.875 C 26.617188 -31.4375 26.082031 -32.8125 25.625 -34 C 25.164062 -35.195312 24.800781 -36.140625 24.53125 -36.828125 Z M 24.53125 -36.828125 "/></g></g></g><g fill="#43b8e0" fill-opacity="1"><g transform="translate(281.866033, 358.608202)"><g><path d="M 4.8125 -34.90625 C 6.550781 -35.40625 8.796875 -35.875 11.546875 -36.3125 C 14.296875 -36.75 17.179688 -36.96875 20.203125 -36.96875 C 23.265625 -36.96875 25.816406 -36.566406 27.859375 -35.765625 C 29.898438 -34.960938 31.515625 -33.828125 32.703125 -32.359375 C 33.890625 -30.890625 34.734375 -29.144531 35.234375 -27.125 C 35.742188 -25.113281 36 -22.875 36 -20.40625 L 36 0 L 25.765625 0 L 25.765625 -19.171875 C 25.765625 -22.460938 25.328125 -24.796875 24.453125 -26.171875 C 23.585938 -27.546875 21.960938 -28.234375 19.578125 -28.234375 C 18.847656 -28.234375 18.070312 -28.195312 17.25 -28.125 C 16.425781 -28.0625 15.691406 -27.984375 15.046875 -27.890625 L 15.046875 0 L 4.8125 0 Z M 4.8125 -34.90625 "/></g></g></g><g fill="#43b8e0" fill-opacity="1"><g transform="translate(322.325499, 358.608202)"><g><path d="M 18.625 -7.140625 C 19.625 -7.140625 20.582031 -7.160156 21.5 -7.203125 C 22.414062 -7.253906 23.148438 -7.328125 23.703125 -7.421875 L 23.703125 -15.1875 C 23.285156 -15.28125 22.664062 -15.367188 21.84375 -15.453125 C 21.019531 -15.546875 20.265625 -15.59375 19.578125 -15.59375 C 18.617188 -15.59375 17.710938 -15.535156 16.859375 -15.421875 C 16.015625 -15.304688 15.269531 -15.085938 14.625 -14.765625 C 13.988281 -14.453125 13.488281 -14.019531 13.125 -13.46875 C 12.757812 -12.914062 12.578125 -12.226562 12.578125 -11.40625 C 12.578125 -9.800781 13.113281 -8.6875 14.1875 -8.0625 C 15.257812 -7.445312 16.738281 -7.140625 18.625 -7.140625 Z M 17.796875 -37.09375 C 20.816406 -37.09375 23.332031 -36.75 25.34375 -36.0625 C 27.363281 -35.375 28.976562 -34.390625 30.1875 -33.109375 C 31.40625 -31.828125 32.265625 -30.269531 32.765625 -28.4375 C 33.273438 -26.601562 33.53125 -24.566406 33.53125 -22.328125 L 33.53125 -1.03125 C 32.0625 -0.707031 30.019531 -0.332031 27.40625 0.09375 C 24.800781 0.53125 21.644531 0.75 17.9375 0.75 C 15.59375 0.75 13.46875 0.539062 11.5625 0.125 C 9.664062 -0.28125 8.03125 -0.953125 6.65625 -1.890625 C 5.289062 -2.828125 4.238281 -4.050781 3.5 -5.5625 C 2.769531 -7.070312 2.40625 -8.925781 2.40625 -11.125 C 2.40625 -13.238281 2.828125 -15.023438 3.671875 -16.484375 C 4.523438 -17.953125 5.660156 -19.117188 7.078125 -19.984375 C 8.492188 -20.859375 10.117188 -21.488281 11.953125 -21.875 C 13.785156 -22.269531 15.6875 -22.46875 17.65625 -22.46875 C 18.988281 -22.46875 20.164062 -22.410156 21.1875 -22.296875 C 22.21875 -22.179688 23.054688 -22.03125 23.703125 -21.84375 L 23.703125 -22.8125 C 23.703125 -24.550781 23.175781 -25.945312 22.125 -27 C 21.070312 -28.050781 19.238281 -28.578125 16.625 -28.578125 C 14.882812 -28.578125 13.164062 -28.453125 11.46875 -28.203125 C 9.78125 -27.953125 8.316406 -27.597656 7.078125 -27.140625 L 5.765625 -35.375 C 6.367188 -35.5625 7.113281 -35.757812 8 -35.96875 C 8.894531 -36.175781 9.867188 -36.359375 10.921875 -36.515625 C 11.972656 -36.671875 13.082031 -36.804688 14.25 -36.921875 C 15.425781 -37.035156 16.609375 -37.09375 17.796875 -37.09375 Z M 17.796875 -37.09375 "/></g></g></g><g fill="#43b8e0" fill-opacity="1"><g transform="translate(360.312061, 358.608202)"><g><path d="M 13.53125 -18.34375 C 13.53125 -15.1875 14.238281 -12.644531 15.65625 -10.71875 C 17.082031 -8.789062 19.191406 -7.828125 21.984375 -7.828125 C 22.898438 -7.828125 23.742188 -7.859375 24.515625 -7.921875 C 25.296875 -7.992188 25.941406 -8.078125 26.453125 -8.171875 L 26.453125 -26.796875 C 25.804688 -27.203125 24.96875 -27.539062 23.9375 -27.8125 C 22.90625 -28.09375 21.863281 -28.234375 20.8125 -28.234375 C 15.957031 -28.234375 13.53125 -24.9375 13.53125 -18.34375 Z M 36.6875 -1.171875 C 35.769531 -0.890625 34.710938 -0.625 33.515625 -0.375 C 32.328125 -0.125 31.082031 0.0859375 29.78125 0.265625 C 28.476562 0.453125 27.148438 0.601562 25.796875 0.71875 C 24.441406 0.832031 23.148438 0.890625 21.921875 0.890625 C 18.941406 0.890625 16.28125 0.457031 13.9375 -0.40625 C 11.601562 -1.28125 9.632812 -2.53125 8.03125 -4.15625 C 6.4375 -5.78125 5.210938 -7.75 4.359375 -10.0625 C 3.515625 -12.375 3.09375 -14.972656 3.09375 -17.859375 C 3.09375 -20.796875 3.457031 -23.441406 4.1875 -25.796875 C 4.925781 -28.160156 5.976562 -30.164062 7.34375 -31.8125 C 8.71875 -33.457031 10.398438 -34.710938 12.390625 -35.578125 C 14.390625 -36.453125 16.671875 -36.890625 19.234375 -36.890625 C 20.648438 -36.890625 21.921875 -36.75 23.046875 -36.46875 C 24.171875 -36.195312 25.304688 -35.8125 26.453125 -35.3125 L 26.453125 -51.671875 L 36.6875 -53.3125 Z M 36.6875 -1.171875 "/></g></g></g><g fill="#43b8e0" fill-opacity="1"><g transform="translate(401.80191, 358.608202)"><g><path d="M 38.609375 -18.140625 C 38.609375 -15.296875 38.195312 -12.691406 37.375 -10.328125 C 36.550781 -7.972656 35.359375 -5.957031 33.796875 -4.28125 C 32.242188 -2.613281 30.378906 -1.320312 28.203125 -0.40625 C 26.023438 0.507812 23.585938 0.96875 20.890625 0.96875 C 18.234375 0.96875 15.816406 0.507812 13.640625 -0.40625 C 11.460938 -1.320312 9.59375 -2.613281 8.03125 -4.28125 C 6.476562 -5.957031 5.265625 -7.972656 4.390625 -10.328125 C 3.523438 -12.691406 3.09375 -15.296875 3.09375 -18.140625 C 3.09375 -20.972656 3.535156 -23.554688 4.421875 -25.890625 C 5.316406 -28.234375 6.554688 -30.226562 8.140625 -31.875 C 9.722656 -33.53125 11.597656 -34.8125 13.765625 -35.71875 C 15.941406 -36.632812 18.316406 -37.09375 20.890625 -37.09375 C 23.492188 -37.09375 25.882812 -36.632812 28.0625 -35.71875 C 30.238281 -34.8125 32.101562 -33.53125 33.65625 -31.875 C 35.21875 -30.226562 36.429688 -28.234375 37.296875 -25.890625 C 38.171875 -23.554688 38.609375 -20.972656 38.609375 -18.140625 Z M 28.171875 -18.140625 C 28.171875 -21.296875 27.539062 -23.78125 26.28125 -25.59375 C 25.019531 -27.40625 23.222656 -28.3125 20.890625 -28.3125 C 18.546875 -28.3125 16.734375 -27.40625 15.453125 -25.59375 C 14.171875 -23.78125 13.53125 -21.296875 13.53125 -18.140625 C 13.53125 -14.972656 14.171875 -12.460938 15.453125 -10.609375 C 16.734375 -8.753906 18.546875 -7.828125 20.890625 -7.828125 C 23.222656 -7.828125 25.019531 -8.753906 26.28125 -10.609375 C 27.539062 -12.460938 28.171875 -14.972656 28.171875 -18.140625 Z M 28.171875 -18.140625 "/></g></g></g><g fill="#43b8e0" fill-opacity="1"><g transform="translate(443.497832, 358.608202)"><g><path d="M 19.234375 0.6875 C 16.253906 0.644531 13.835938 0.328125 11.984375 -0.265625 C 10.128906 -0.867188 8.664062 -1.707031 7.59375 -2.78125 C 6.519531 -3.851562 5.785156 -5.15625 5.390625 -6.6875 C 5.003906 -8.226562 4.8125 -9.960938 4.8125 -11.890625 L 4.8125 -51.671875 L 15.046875 -53.3125 L 15.046875 -13.953125 C 15.046875 -13.035156 15.113281 -12.207031 15.25 -11.46875 C 15.382812 -10.738281 15.644531 -10.117188 16.03125 -9.609375 C 16.425781 -9.109375 16.988281 -8.695312 17.71875 -8.375 C 18.457031 -8.0625 19.441406 -7.859375 20.671875 -7.765625 Z M 19.234375 0.6875 "/></g></g></g><g fill="#43b8e0" fill-opacity="1"><g transform="translate(465.204442, 358.608202)"><g><path d="M 35.65625 -1.234375 C 33.914062 -0.734375 31.671875 -0.265625 28.921875 0.171875 C 26.171875 0.609375 23.285156 0.828125 20.265625 0.828125 C 17.203125 0.828125 14.648438 0.414062 12.609375 -0.40625 C 10.566406 -1.238281 8.953125 -2.394531 7.765625 -3.875 C 6.578125 -5.363281 5.726562 -7.140625 5.21875 -9.203125 C 4.71875 -11.265625 4.46875 -13.535156 4.46875 -16.015625 L 4.46875 -36.140625 L 14.703125 -36.140625 L 14.703125 -17.25 C 14.703125 -13.945312 15.132812 -11.5625 16 -10.09375 C 16.875 -8.632812 18.503906 -7.90625 20.890625 -7.90625 C 21.617188 -7.90625 22.394531 -7.9375 23.21875 -8 C 24.039062 -8.070312 24.773438 -8.15625 25.421875 -8.25 L 25.421875 -36.140625 L 35.65625 -36.140625 Z M 35.65625 -1.234375 "/></g></g></g><g fill="#43b8e0" fill-opacity="1"><g transform="translate(505.67147, 358.608202)"><g/></g></g><g fill="#89ad27" fill-opacity="1"><g transform="translate(210.790635, 414.28354)"><g><path d="M 34.203125 -47.59375 L 44.921875 -47.59375 L 44.921875 0 L 34.203125 0 L 34.203125 -20.1875 L 16.203125 -20.1875 L 16.203125 0 L 5.5 0 L 5.5 -47.59375 L 16.203125 -47.59375 L 16.203125 -29.390625 L 34.203125 -29.390625 Z M 34.203125 -47.59375 "/></g></g></g><g fill="#89ad27" fill-opacity="1"><g transform="translate(261.199777, 414.28354)"><g><path d="M 18.609375 -7.140625 C 19.617188 -7.140625 20.582031 -7.160156 21.5 -7.203125 C 22.414062 -7.253906 23.148438 -7.328125 23.703125 -7.421875 L 23.703125 -15.1875 C 23.285156 -15.269531 22.664062 -15.359375 21.84375 -15.453125 C 21.019531 -15.546875 20.265625 -15.59375 19.578125 -15.59375 C 18.617188 -15.59375 17.710938 -15.535156 16.859375 -15.421875 C 16.015625 -15.304688 15.269531 -15.085938 14.625 -14.765625 C 13.988281 -14.441406 13.484375 -14.003906 13.109375 -13.453125 C 12.742188 -12.910156 12.5625 -12.226562 12.5625 -11.40625 C 12.5625 -9.800781 13.097656 -8.6875 14.171875 -8.0625 C 15.253906 -7.445312 16.734375 -7.140625 18.609375 -7.140625 Z M 17.796875 -37.09375 C 20.816406 -37.09375 23.332031 -36.75 25.34375 -36.0625 C 27.363281 -35.375 28.976562 -34.390625 30.1875 -33.109375 C 31.40625 -31.828125 32.265625 -30.269531 32.765625 -28.4375 C 33.265625 -26.601562 33.515625 -24.566406 33.515625 -22.328125 L 33.515625 -1.03125 C 32.054688 -0.707031 30.019531 -0.332031 27.40625 0.09375 C 24.789062 0.53125 21.628906 0.75 17.921875 0.75 C 15.585938 0.75 13.46875 0.539062 11.5625 0.125 C 9.664062 -0.28125 8.03125 -0.953125 6.65625 -1.890625 C 5.289062 -2.828125 4.238281 -4.050781 3.5 -5.5625 C 2.769531 -7.070312 2.40625 -8.925781 2.40625 -11.125 C 2.40625 -13.226562 2.828125 -15.015625 3.671875 -16.484375 C 4.523438 -17.953125 5.660156 -19.117188 7.078125 -19.984375 C 8.492188 -20.859375 10.117188 -21.488281 11.953125 -21.875 C 13.785156 -22.257812 15.6875 -22.453125 17.65625 -22.453125 C 18.976562 -22.453125 20.15625 -22.394531 21.1875 -22.28125 C 22.21875 -22.175781 23.054688 -22.03125 23.703125 -21.84375 L 23.703125 -22.796875 C 23.703125 -24.546875 23.171875 -25.945312 22.109375 -27 C 21.054688 -28.050781 19.226562 -28.578125 16.625 -28.578125 C 14.882812 -28.578125 13.164062 -28.445312 11.46875 -28.1875 C 9.769531 -27.9375 8.304688 -27.582031 7.078125 -27.125 L 5.765625 -35.375 C 6.359375 -35.5625 7.101562 -35.753906 8 -35.953125 C 8.894531 -36.160156 9.867188 -36.34375 10.921875 -36.5 C 11.972656 -36.664062 13.082031 -36.804688 14.25 -36.921875 C 15.414062 -37.035156 16.597656 -37.09375 17.796875 -37.09375 Z M 17.796875 -37.09375 "/></g></g></g><g fill="#89ad27" fill-opacity="1"><g transform="translate(299.17832, 414.28354)"><g><path d="M 15.1875 -7.34375 C 17.0625 -7.34375 18.382812 -7.523438 19.15625 -7.890625 C 19.9375 -8.265625 20.328125 -8.976562 20.328125 -10.03125 C 20.328125 -10.851562 19.820312 -11.570312 18.8125 -12.1875 C 17.8125 -12.8125 16.28125 -13.507812 14.21875 -14.28125 C 12.613281 -14.882812 11.160156 -15.503906 9.859375 -16.140625 C 8.554688 -16.785156 7.445312 -17.550781 6.53125 -18.4375 C 5.613281 -19.332031 4.898438 -20.394531 4.390625 -21.625 C 3.890625 -22.863281 3.640625 -24.351562 3.640625 -26.09375 C 3.640625 -29.488281 4.898438 -32.171875 7.421875 -34.140625 C 9.941406 -36.109375 13.398438 -37.09375 17.796875 -37.09375 C 19.992188 -37.09375 22.097656 -36.894531 24.109375 -36.5 C 26.117188 -36.113281 27.722656 -35.691406 28.921875 -35.234375 L 27.125 -27.265625 C 25.9375 -27.679688 24.644531 -28.046875 23.25 -28.359375 C 21.851562 -28.679688 20.285156 -28.84375 18.546875 -28.84375 C 15.335938 -28.84375 13.734375 -27.953125 13.734375 -26.171875 C 13.734375 -25.753906 13.800781 -25.382812 13.9375 -25.0625 C 14.082031 -24.75 14.359375 -24.441406 14.765625 -24.140625 C 15.179688 -23.847656 15.742188 -23.53125 16.453125 -23.1875 C 17.160156 -22.84375 18.0625 -22.460938 19.15625 -22.046875 C 21.40625 -21.222656 23.257812 -20.410156 24.71875 -19.609375 C 26.1875 -18.804688 27.34375 -17.9375 28.1875 -17 C 29.039062 -16.0625 29.640625 -15.019531 29.984375 -13.875 C 30.328125 -12.726562 30.5 -11.398438 30.5 -9.890625 C 30.5 -6.316406 29.15625 -3.613281 26.46875 -1.78125 C 23.789062 0.0507812 20.003906 0.96875 15.109375 0.96875 C 11.898438 0.96875 9.234375 0.691406 7.109375 0.140625 C 4.984375 -0.410156 3.503906 -0.867188 2.671875 -1.234375 L 4.390625 -9.546875 C 6.128906 -8.859375 7.914062 -8.316406 9.75 -7.921875 C 11.582031 -7.535156 13.394531 -7.34375 15.1875 -7.34375 Z M 15.1875 -7.34375 "/></g></g></g><g fill="#89ad27" fill-opacity="1"><g transform="translate(332.486811, 414.28354)"><g><path d="M 4.46875 -45.125 L 14.703125 -46.78125 L 14.703125 -36.125 L 27 -36.125 L 27 -27.609375 L 14.703125 -27.609375 L 14.703125 -14.90625 C 14.703125 -12.75 15.078125 -11.03125 15.828125 -9.75 C 16.585938 -8.46875 18.113281 -7.828125 20.40625 -7.828125 C 21.5 -7.828125 22.628906 -7.929688 23.796875 -8.140625 C 24.960938 -8.347656 26.03125 -8.632812 27 -9 L 28.4375 -1.03125 C 27.195312 -0.53125 25.820312 -0.0976562 24.3125 0.265625 C 22.800781 0.640625 20.945312 0.828125 18.75 0.828125 C 15.957031 0.828125 13.644531 0.453125 11.8125 -0.296875 C 9.976562 -1.054688 8.507812 -2.113281 7.40625 -3.46875 C 6.3125 -4.820312 5.546875 -6.457031 5.109375 -8.375 C 4.679688 -10.300781 4.46875 -12.429688 4.46875 -14.765625 Z M 4.46875 -45.125 "/></g></g></g><g fill="#89ad27" fill-opacity="1"><g transform="translate(362.979538, 414.28354)"><g><path d="M 18.609375 -7.140625 C 19.617188 -7.140625 20.582031 -7.160156 21.5 -7.203125 C 22.414062 -7.253906 23.148438 -7.328125 23.703125 -7.421875 L 23.703125 -15.1875 C 23.285156 -15.269531 22.664062 -15.359375 21.84375 -15.453125 C 21.019531 -15.546875 20.265625 -15.59375 19.578125 -15.59375 C 18.617188 -15.59375 17.710938 -15.535156 16.859375 -15.421875 C 16.015625 -15.304688 15.269531 -15.085938 14.625 -14.765625 C 13.988281 -14.441406 13.484375 -14.003906 13.109375 -13.453125 C 12.742188 -12.910156 12.5625 -12.226562 12.5625 -11.40625 C 12.5625 -9.800781 13.097656 -8.6875 14.171875 -8.0625 C 15.253906 -7.445312 16.734375 -7.140625 18.609375 -7.140625 Z M 17.796875 -37.09375 C 20.816406 -37.09375 23.332031 -36.75 25.34375 -36.0625 C 27.363281 -35.375 28.976562 -34.390625 30.1875 -33.109375 C 31.40625 -31.828125 32.265625 -30.269531 32.765625 -28.4375 C 33.265625 -26.601562 33.515625 -24.566406 33.515625 -22.328125 L 33.515625 -1.03125 C 32.054688 -0.707031 30.019531 -0.332031 27.40625 0.09375 C 24.789062 0.53125 21.628906 0.75 17.921875 0.75 C 15.585938 0.75 13.46875 0.539062 11.5625 0.125 C 9.664062 -0.28125 8.03125 -0.953125 6.65625 -1.890625 C 5.289062 -2.828125 4.238281 -4.050781 3.5 -5.5625 C 2.769531 -7.070312 2.40625 -8.925781 2.40625 -11.125 C 2.40625 -13.226562 2.828125 -15.015625 3.671875 -16.484375 C 4.523438 -17.953125 5.660156 -19.117188 7.078125 -19.984375 C 8.492188 -20.859375 10.117188 -21.488281 11.953125 -21.875 C 13.785156 -22.257812 15.6875 -22.453125 17.65625 -22.453125 C 18.976562 -22.453125 20.15625 -22.394531 21.1875 -22.28125 C 22.21875 -22.175781 23.054688 -22.03125 23.703125 -21.84375 L 23.703125 -22.796875 C 23.703125 -24.546875 23.171875 -25.945312 22.109375 -27 C 21.054688 -28.050781 19.226562 -28.578125 16.625 -28.578125 C 14.882812 -28.578125 13.164062 -28.445312 11.46875 -28.1875 C 9.769531 -27.9375 8.304688 -27.582031 7.078125 -27.125 L 5.765625 -35.375 C 6.359375 -35.5625 7.101562 -35.753906 8 -35.953125 C 8.894531 -36.160156 9.867188 -36.34375 10.921875 -36.5 C 11.972656 -36.664062 13.082031 -36.804688 14.25 -36.921875 C 15.414062 -37.035156 16.597656 -37.09375 17.796875 -37.09375 Z M 17.796875 -37.09375 "/></g></g></g><g fill="#89ad27" fill-opacity="1"><g transform="translate(400.958081, 414.28354)"><g><path d="M 4.8125 -34.890625 C 6.550781 -35.398438 8.789062 -35.867188 11.53125 -36.296875 C 14.28125 -36.734375 17.164062 -36.953125 20.1875 -36.953125 C 23.257812 -36.953125 25.8125 -36.550781 27.84375 -35.75 C 29.882812 -34.945312 31.5 -33.8125 32.6875 -32.34375 C 33.882812 -30.882812 34.734375 -29.144531 35.234375 -27.125 C 35.742188 -25.113281 36 -22.875 36 -20.40625 L 36 0 L 25.75 0 L 25.75 -19.15625 C 25.75 -22.457031 25.3125 -24.796875 24.4375 -26.171875 C 23.570312 -27.546875 21.953125 -28.234375 19.578125 -28.234375 C 18.847656 -28.234375 18.066406 -28.195312 17.234375 -28.125 C 16.410156 -28.0625 15.679688 -27.984375 15.046875 -27.890625 L 15.046875 0 L 4.8125 0 Z M 4.8125 -34.890625 "/></g></g></g><g fill="#89ad27" fill-opacity="1"><g transform="translate(441.409016, 414.28354)"><g><path d="M 3.09375 -17.796875 C 3.09375 -20.992188 3.582031 -23.796875 4.5625 -26.203125 C 5.550781 -28.609375 6.847656 -30.613281 8.453125 -32.21875 C 10.054688 -33.820312 11.898438 -35.035156 13.984375 -35.859375 C 16.066406 -36.679688 18.207031 -37.09375 20.40625 -37.09375 C 25.53125 -37.09375 29.578125 -35.523438 32.546875 -32.390625 C 35.523438 -29.253906 37.015625 -24.640625 37.015625 -18.546875 C 37.015625 -17.953125 36.992188 -17.296875 36.953125 -16.578125 C 36.910156 -15.867188 36.863281 -15.242188 36.8125 -14.703125 L 13.59375 -14.703125 C 13.820312 -12.597656 14.804688 -10.925781 16.546875 -9.6875 C 18.285156 -8.445312 20.625 -7.828125 23.5625 -7.828125 C 25.4375 -7.828125 27.273438 -8 29.078125 -8.34375 C 30.890625 -8.6875 32.367188 -9.109375 33.515625 -9.609375 L 34.890625 -1.3125 C 34.335938 -1.03125 33.601562 -0.75 32.6875 -0.46875 C 31.78125 -0.195312 30.765625 0.0351562 29.640625 0.234375 C 28.515625 0.441406 27.3125 0.613281 26.03125 0.75 C 24.75 0.894531 23.46875 0.96875 22.1875 0.96875 C 18.9375 0.96875 16.109375 0.488281 13.703125 -0.46875 C 11.296875 -1.4375 9.300781 -2.753906 7.71875 -4.421875 C 6.144531 -6.097656 4.976562 -8.082031 4.21875 -10.375 C 3.46875 -12.664062 3.09375 -15.140625 3.09375 -17.796875 Z M 27.125 -21.703125 C 27.082031 -22.578125 26.9375 -23.425781 26.6875 -24.25 C 26.4375 -25.070312 26.046875 -25.800781 25.515625 -26.4375 C 24.992188 -27.082031 24.332031 -27.609375 23.53125 -28.015625 C 22.726562 -28.429688 21.726562 -28.640625 20.53125 -28.640625 C 19.394531 -28.640625 18.410156 -28.441406 17.578125 -28.046875 C 16.753906 -27.660156 16.066406 -27.144531 15.515625 -26.5 C 14.972656 -25.863281 14.550781 -25.125 14.25 -24.28125 C 13.957031 -23.4375 13.738281 -22.578125 13.59375 -21.703125 Z M 27.125 -21.703125 "/></g></g></g><g fill="#89ad27" fill-opacity="1"><g transform="translate(481.51655, 414.28354)"><g><path d="M 15.1875 -7.34375 C 17.0625 -7.34375 18.382812 -7.523438 19.15625 -7.890625 C 19.9375 -8.265625 20.328125 -8.976562 20.328125 -10.03125 C 20.328125 -10.851562 19.820312 -11.570312 18.8125 -12.1875 C 17.8125 -12.8125 16.28125 -13.507812 14.21875 -14.28125 C 12.613281 -14.882812 11.160156 -15.503906 9.859375 -16.140625 C 8.554688 -16.785156 7.445312 -17.550781 6.53125 -18.4375 C 5.613281 -19.332031 4.898438 -20.394531 4.390625 -21.625 C 3.890625 -22.863281 3.640625 -24.351562 3.640625 -26.09375 C 3.640625 -29.488281 4.898438 -32.171875 7.421875 -34.140625 C 9.941406 -36.109375 13.398438 -37.09375 17.796875 -37.09375 C 19.992188 -37.09375 22.097656 -36.894531 24.109375 -36.5 C 26.117188 -36.113281 27.722656 -35.691406 28.921875 -35.234375 L 27.125 -27.265625 C 25.9375 -27.679688 24.644531 -28.046875 23.25 -28.359375 C 21.851562 -28.679688 20.285156 -28.84375 18.546875 -28.84375 C 15.335938 -28.84375 13.734375 -27.953125 13.734375 -26.171875 C 13.734375 -25.753906 13.800781 -25.382812 13.9375 -25.0625 C 14.082031 -24.75 14.359375 -24.441406 14.765625 -24.140625 C 15.179688 -23.847656 15.742188 -23.53125 16.453125 -23.1875 C 17.160156 -22.84375 18.0625 -22.460938 19.15625 -22.046875 C 21.40625 -21.222656 23.257812 -20.410156 24.71875 -19.609375 C 26.1875 -18.804688 27.34375 -17.9375 28.1875 -17 C 29.039062 -16.0625 29.640625 -15.019531 29.984375 -13.875 C 30.328125 -12.726562 30.5 -11.398438 30.5 -9.890625 C 30.5 -6.316406 29.15625 -3.613281 26.46875 -1.78125 C 23.789062 0.0507812 20.003906 0.96875 15.109375 0.96875 C 11.898438 0.96875 9.234375 0.691406 7.109375 0.140625 C 4.984375 -0.410156 3.503906 -0.867188 2.671875 -1.234375 L 4.390625 -9.546875 C 6.128906 -8.859375 7.914062 -8.316406 9.75 -7.921875 C 11.582031 -7.535156 13.394531 -7.34375 15.1875 -7.34375 Z M 15.1875 -7.34375 "/></g></g></g><g fill="#89ad27" fill-opacity="1"><g transform="translate(514.825041, 414.28354)"><g><path d="M 15.046875 0 L 4.8125 0 L 4.8125 -36.125 L 15.046875 -36.125 Z M 16 -46.5625 C 16 -44.6875 15.390625 -43.210938 14.171875 -42.140625 C 12.960938 -41.066406 11.535156 -40.53125 9.890625 -40.53125 C 8.242188 -40.53125 6.8125 -41.066406 5.59375 -42.140625 C 4.382812 -43.210938 3.78125 -44.6875 3.78125 -46.5625 C 3.78125 -48.445312 4.382812 -49.925781 5.59375 -51 C 6.8125 -52.070312 8.242188 -52.609375 9.890625 -52.609375 C 11.535156 -52.609375 12.960938 -52.070312 14.171875 -51 C 15.390625 -49.925781 16 -48.445312 16 -46.5625 Z M 16 -46.5625 "/></g></g></g></svg>